<?xml version="1.0" encoding="utf-8"?>
<!-- Generator: Adobe Illustrator 19.0.0, SVG Export Plug-In . SVG Version: 6.00 Build 0)  -->
<svg version="1.1" xmlns="http://www.w3.org/2000/svg" xmlns:xlink="http://www.w3.org/1999/xlink" x="0px" y="0px"
	 viewBox="-290.8 391.8 201.3 74.8" style="enable-background:new -290.8 391.8 201.3 74.8;" xml:space="preserve">
<style type="text/css">
	.st0{display:none;}
	.st1{display:inline;}
	.st2{fill:#00A0D2;}
	.st3{fill:#333333;}
	.st4{fill:#F1972B;}
	.st5{fill:#444444;}
</style>
<g id="Layer_2">
	<g>
		<g>
			<path class="st4" d="M-270.7,464.7h-4.4V441h4.3v3.9h0.2c0.5-1.3,1.4-2.3,2.8-3.2s2.8-1.3,4.1-1.3c1.3,0,2.4,0.2,3.3,0.6
				l-1.4,4.3c-0.5-0.2-1.4-0.3-2.6-0.3c-1.7,0-3.1,0.7-4.4,2c-1.2,1.4-1.9,2.9-1.9,4.7V464.7z"/>
			<path class="st4" d="M-248.4,465.5c-3.5,0-6.4-1.2-8.6-3.6c-2.3-2.4-3.4-5.4-3.4-9c0-3.6,1.1-6.6,3.3-9c2.2-2.4,5-3.6,8.4-3.6
				c3.5,0,6.3,1.1,8.4,3.4s3.1,5.5,3.1,9.5l0,0.5h-18.6c0.1,2.3,0.8,4.2,2.3,5.6c1.5,1.4,3.3,2.1,5.3,2.1c2.8,0,5.1-1.4,6.7-4.3
				l4,1.9c-1.1,2-2.5,3.6-4.4,4.7C-243.9,464.9-246,465.5-248.4,465.5z M-255.5,450h13.6c-0.1-1.6-0.8-3-2-4.1s-2.8-1.6-4.9-1.6
				c-1.7,0-3.1,0.5-4.3,1.5C-254.3,446.9-255.1,448.3-255.5,450z"/>
			<path class="st4" d="M-223,465.5c-3.1,0-5.8-1.2-8-3.7c-2.2-2.5-3.3-5.5-3.3-8.9c0-3.5,1.1-6.5,3.3-8.9c2.2-2.4,4.9-3.7,8-3.7
				c1.7,0,3.3,0.4,4.8,1.1c1.4,0.7,2.5,1.7,3.3,2.9h0.2l-0.2-3.3v-10.9h4.4v34.6h-4.3v-3.3h-0.2c-0.8,1.2-1.9,2.2-3.3,2.9
				C-219.6,465.1-221.2,465.5-223,465.5z M-222.2,461.4c2.2,0,4-0.8,5.4-2.4c1.5-1.6,2.2-3.6,2.2-6.2c0-2.5-0.7-4.5-2.2-6.1
				c-1.4-1.6-3.2-2.4-5.4-2.4c-2.1,0-3.9,0.8-5.4,2.4s-2.2,3.7-2.2,6.1c0,2.5,0.7,4.6,2.2,6.1C-226.2,460.6-224.4,461.4-222.2,461.4
				z"/>
		</g>
		<g>
			<path class="st4" d="M-289.5,395.5h43.9v12.4h-30.8v16.8h27.8v12.4h-27.8v27.7h-13.1V395.5z"/>
		</g>
		<g>
			<path class="st5" d="M-209.8,395.5h23.4c5.5,0,10.4,0.8,14.8,2.5c4.4,1.7,8.1,4,11.2,7.1c3.1,3.1,5.5,6.7,7.1,11
				c1.6,4.3,2.5,8.9,2.5,14c0,5.2-0.8,9.9-2.5,14.1c-1.6,4.3-4,7.9-7.1,10.9c-3.1,3-6.8,5.4-11.2,7.1c-4.4,1.7-9.3,2.5-14.8,2.5
				h-23.4V395.5z M-187,452.3c3.8,0,7.2-0.5,10.1-1.6c2.9-1.1,5.3-2.6,7.3-4.5c1.9-1.9,3.4-4.3,4.4-7c1-2.7,1.5-5.8,1.5-9.1
				c0-3.4-0.5-6.4-1.5-9.1c-1-2.7-2.4-5.1-4.4-7c-1.9-1.9-4.4-3.4-7.3-4.5c-2.9-1.1-6.3-1.6-10.1-1.6h-9.8v44.5H-187z"/>
		</g>
		<g>
			<path class="st5" d="M-128.7,426l29.5-16.7c0.5,0.6,1.1,1.3,1.8,2.2c0.7,0.9,1.2,1.8,1.8,2.8c2.2,3.9,3.7,7.9,4.4,11.9
				c0.8,4.1,0.6,8.2-0.4,12.3c-1.1,4.4-3,8.4-5.9,12.1c-2.9,3.7-6.7,6.9-11.5,9.6c-4.4,2.5-8.9,4-13.7,4.6
				c-4.8,0.6-9.4,0.3-13.8-0.8c-4.4-1.2-8.6-3.2-12.5-6.1c-3.9-2.9-7.1-6.6-9.6-11.2c-2.6-4.5-4.1-9.2-4.6-14
				c-0.5-4.8-0.1-9.4,1.2-13.8c1.3-4.4,3.4-8.5,6.4-12.3c3-3.8,6.7-6.9,11-9.4c4.9-2.8,9.7-4.4,14.5-4.9c4.8-0.5,9.4,0,13.8,1.4
				l-3.5,12.1c-3.1-1-6.2-1.3-9.3-1c-3,0.3-6.2,1.4-9.6,3.3c-2.8,1.6-5.1,3.5-7,5.9c-1.9,2.4-3.3,5-4.1,7.8c-0.8,2.8-1.1,5.9-0.7,9
				c0.4,3.2,1.4,6.3,3.2,9.5c1.8,3.1,3.9,5.7,6.5,7.6c2.5,1.9,5.3,3.3,8.2,4c2.9,0.7,5.9,0.9,8.9,0.5c3-0.4,5.9-1.4,8.7-3
				c3.2-1.8,5.6-3.8,7.3-6c1.7-2.2,2.9-4.4,3.7-6.8c0.5-1.6,0.8-3.5,0.7-5.5c-0.1-2-0.4-4.1-1-6.2l-18.9,10.7L-128.7,426z"/>
		</g>
	</g>
</g>
</svg>
